{
.appVersion = "1060";
copyright = "Copyright 2017 Google Inc. All Rights Reserved.";
customParameters = (
{
name = glyphOrder;
value = (
.notdef,
NULL,
CR,
space,
nbspace,
uni25CC,
uni0300,
uni0306,
uni0307,
uni0308,
uni0313,
uni0483,
uni20DB,
u10350,
u10351,
u10352,
u10353,
u10354,
u10355,
u10356,
u10357,
u10358,
u10359,
u1035A,
u1035B,
u1035C,
u1035D,
u1035E,
u1035F,
u10360,
u10361,
u10362,
u10363,
u10364,
u10365,
u10366,
u10367,
u10368,
u10369,
u1036A,
u1036B,
u1036C,
u1036D,
u1036E,
u1036F,
u10370,
u10371,
u10372,
u10373,
u10374,
u10375,
u10376,
u10377,
u10378,
u10379,
u1037A
);
},
{
name = description;
value = "Designed by Monotype design team.";
},
{
name = license;
value = "This Font Software is licensed under the SIL Open Font License, Version 1.1. This Font Software is distributed on an \"AS IS\" BASIS, WITHOUT WARRANTIES OR CONDITIONS OF ANY KIND, either express or implied. See the SIL Open Font License for the specific language, permissions and limitations governing your use of this Font Software.";
},
{
name = licenseURL;
value = "http://scripts.sil.org/OFL";
},
{
name = vendorID;
value = GOOG;
},
{
name = unicodeRanges;
value = (
0,
1,
6,
9,
34,
45,
57
);
},
{
name = trademark;
value = "Noto is a trademark of Google Inc.";
},
{
name = "Has WWS Names";
value = 1;
},
{
name = versionString;
value = "Version 2.000";
},
{
name = fsType;
value = (
);
},
{
name = codePageRanges;
value = (
"1252"
);
}
);
date = "2015-08-26 20:26:11 +0000";
designer = "Monotype Design Team";
designerURL = "http://www.monotype.com/studio";
disablesAutomaticAlignment = 1;
disablesNiceNames = 1;
familyName = "Noto Sans Old Permic";
fontMaster = (
{
alignmentZones = (
"{1069, 15}",
"{638, 15}",
"{536, 15}",
"{0, -15}",
"{-293, -15}"
);
ascender = 1069;
capHeight = 638;
customParameters = (
{
name = typoAscender;
value = 1069;
},
{
name = typoDescender;
value = -293;
},
{
name = typoLineGap;
value = 0;
},
{
name = winAscent;
value = 1069;
},
{
name = winDescent;
value = 293;
},
{

glyphs = (
{
glyphname = .notdef;
lastChange = "2017-11-30 22:49:53 +0000";
layers = (
{
layerId = "1FAED112-D442-4693-91CF-59296FEFF074";
paths = (
{
closed = 1;
nodes = (
"505 0 LINE",
"505 714 LINE",
"94 714 LINE",
"94 0 LINE"
);
},
{
closed = 1;
nodes = (
"145 663 LINE",
"454 663 LINE",
"454 51 LINE",
"145 51 LINE"
);
}
);
width = 600;
}
);
},
{
glyphname = uni25CC;
lastChange = "2017-11-30 22:49:53 +0000";
layers = (
{
layerId = "1FAED112-D442-4693-91CF-59296FEFF074";
paths = (
{
closed = 1;
nodes = (
"199 522 OFFCURVE",
"187 510 OFFCURVE",
"187 496 CURVE SMOOTH",
"187 482 OFFCURVE",
"199 470 OFFCURVE",
"213 470 CURVE SMOOTH",
"227 470 OFFCURVE",
"239 482 OFFCURVE",
"239 496 CURVE SMOOTH",
"239 510 OFFCURVE",
"227 522 OFFCURVE",
"213 522 CURVE SMOOTH"
);
},
{
closed = 1;
nodes = (
"367 522 OFFCURVE",
"355 510 OFFCURVE",
"355 496 CURVE SMOOTH",
"355 482 OFFCURVE",
"367 470 OFFCURVE",
"381 470 CURVE SMOOTH",
"395 470 OFFCURVE",
"407 482 OFFCURVE",
"407 496 CURVE SMOOTH",
"407 510 OFFCURVE",
"395 522 OFFCURVE",
"381 522 CURVE SMOOTH"
);
},
{
closed = 1;
nodes = (
"199 112 OFFCURVE",
"187 100 OFFCURVE",
"187 86 CURVE SMOOTH",
"187 72 OFFCURVE",
"199 60 OFFCURVE",
"213 60 CURVE SMOOTH",
"227 60 OFFCURVE",
"239 72 OFFCURVE",
"239 86 CURVE SMOOTH",
"239 100 OFFCURVE",
"227 112 OFFCURVE",
"213 112 CURVE SMOOTH"
);
},
{
closed = 1;
nodes = (
"367 112 OFFCURVE",
"355 100 OFFCURVE",
"355 86 CURVE SMOOTH",
"355 72 OFFCURVE",
"367 60 OFFCURVE",
"381 60 CURVE SMOOTH",
"395 60 OFFCURVE",
"407 72 OFFCURVE",
"407 86 CURVE SMOOTH",
"407 100 OFFCURVE",
"395 112 OFFCURVE",
"381 112 CURVE SMOOTH"
);
},
{
closed = 1;
nodes = (
"283 540 OFFCURVE",
"271 528 OFFCURVE",
"271 514 CURVE SMOOTH",
"271 500 OFFCURVE",
"283 488 OFFCURVE",
"297 488 CURVE SMOOTH",
"311 488 OFFCURVE",
"323 500 OFFCURVE",
"323 514 CURVE SMOOTH",
"323 528 OFFCURVE",
"311 540 OFFCURVE",
"297 540 CURVE SMOOTH"
);
},
{
closed = 1;
nodes = (
"283 94 OFFCURVE",
"271 82 OFFCURVE",
"271 68 CURVE SMOOTH",
"271 54 OFFCURVE",
"283 42 OFFCURVE",
"297 42 CURVE SMOOTH",
"311 42 OFFCURVE",
"323 54 OFFCURVE",
"323 68 CURVE SMOOTH",
"323 82 OFFCURVE",
"311 94 OFFCURVE",
"297 94 CURVE SMOOTH"
);
},
{
closed = 1;
nodes = (
"48 277 OFFCURVE",
"60 265 OFFCURVE",
"74 265 CURVE SMOOTH",
"88 265 OFFCURVE",
"100 277 OFFCURVE",
"100 291 CURVE SMOOTH",
"100 305 OFFCURVE",
"88 317 OFFCURVE",
"74 317 CURVE SMOOTH",
"60 317 OFFCURVE",
"48 305 OFFCURVE",
"48 291 CURVE SMOOTH"
);
},
{
closed = 1;
nodes = (
"494 277 OFFCURVE",
"506 265 OFFCURVE",
"520 265 CURVE SMOOTH",
"534 265 OFFCURVE",
"546 277 OFFCURVE",
"546 291 CURVE SMOOTH",
"546 305 OFFCURVE",
"534 317 OFFCURVE",
"520 317 CURVE SMOOTH",
"506 317 OFFCURVE",
"494 305 OFFCURVE",
"494 291 CURVE SMOOTH"
);
},
{
closed = 1;
nodes = (
"113 119 OFFCURVE",
"125 107 OFFCURVE",
"139 107 CURVE SMOOTH",
"153 107 OFFCURVE",
"165 119 OFFCURVE",
"165 133 CURVE SMOOTH",
"165 147 OFFCURVE",
"153 159 OFFCURVE",
"139 159 CURVE SMOOTH",
"125 159 OFFCURVE",
"113 147 OFFCURVE",
"113 133 CURVE SMOOTH"
);
},
{
closed = 1;
nodes = (
"113 435 OFFCURVE",
"125 423 OFFCURVE",
"139 423 CURVE SMOOTH",
"153 423 OFFCURVE",
"165 435 OFFCURVE",
"165 449 CURVE SMOOTH",
"165 463 OFFCURVE",
"153 475 OFFCURVE",
"139 475 CURVE SMOOTH",
"125 475 OFFCURVE",
"113 463 OFFCURVE",
"113 449 CURVE SMOOTH"
);
},
{
closed = 1;
nodes = (
"429 119 OFFCURVE",
"441 107 OFFCURVE",
"455 107 CURVE SMOOTH",
"469 107 OFFCURVE",
"481 119 OFFCURVE",
"481 133 CURVE SMOOTH",
"481 147 OFFCURVE",
"469 159 OFFCURVE",
"455 159 CURVE SMOOTH",
"441 159 OFFCURVE",
"429 147 OFFCURVE",
"429 133 CURVE SMOOTH"
);
},
{
closed = 1;
nodes = (
"429 435 OFFCURVE",
"441 423 OFFCURVE",
"455 423 CURVE SMOOTH",
"469 423 OFFCURVE",
"481 435 OFFCURVE",
"481 449 CURVE SMOOTH",
"481 463 OFFCURVE",
"469 475 OFFCURVE",
"455 475 CURVE SMOOTH",
"441 475 OFFCURVE",
"429 463 OFFCURVE",
"429 449 CURVE SMOOTH"
);
},
{
closed = 1;
nodes = (
"66 193 OFFCURVE",
"78 181 OFFCURVE",
"92 181 CURVE SMOOTH",
"106 181 OFFCURVE",
"118 193 OFFCURVE",
"118 207 CURVE SMOOTH",
"118 221 OFFCURVE",
"106 233 OFFCURVE",
"92 233 CURVE SMOOTH",
"78 233 OFFCURVE",
"66 221 OFFCURVE",
"66 207 CURVE SMOOTH"
);
},
{
closed = 1;
nodes = (
"66 361 OFFCURVE",
"78 349 OFFCURVE",
"92 349 CURVE SMOOTH",
"106 349 OFFCURVE",
"118 361 OFFCURVE",
"118 375 CURVE SMOOTH",
"118 389 OFFCURVE",
"106 401 OFFCURVE",
"92 401 CURVE SMOOTH",
"78 401 OFFCURVE",
"66 389 OFFCURVE",
"66 375 CURVE SMOOTH"
);
},
{
closed = 1;
nodes = (
"476 193 OFFCURVE",
"488 181 OFFCURVE",
"502 181 CURVE SMOOTH",
"516 181 OFFCURVE",
"528 193 OFFCURVE",
"528 207 CURVE SMOOTH",
"528 221 OFFCURVE",
"516 233 OFFCURVE",
"502 233 CURVE SMOOTH",
"488 233 OFFCURVE",
"476 221 OFFCURVE",
"476 207 CURVE SMOOTH"
);
},
{
closed = 1;
nodes = (
"476 361 OFFCURVE",
"488 349 OFFCURVE",
"502 349 CURVE SMOOTH",
"516 349 OFFCURVE",
"528 361 OFFCURVE",
"528 375 CURVE SMOOTH",
"528 389 OFFCURVE",
"516 401 OFFCURVE",
"502 401 CURVE SMOOTH",
"488 401 OFFCURVE",
"476 389 OFFCURVE",
"476 375 CURVE SMOOTH"
);
}
);
width = 594;
}
);
unicode = 25CC;
},
{
glyphname = uni0300;
lastChange = "2017-12-05 18:39:09 +0000";
layers = (
{
layerId = "1FAED112-D442-4693-91CF-59296FEFF074";
paths = (
{
closed = 1;
nodes = (
"-144 766 LINE",
"-144 756 LINE",
"-121 719 OFFCURVE",
"-51 642 OFFCURVE",
"-8 606 CURVE",
"51 606 LINE",
"51 618 LINE",
"22 655 OFFCURVE",
"-20 721 OFFCURVE",
"-41 766 CURVE"
);
}
);
width = 0;
}
);
unicode = 0300;
},
{
glyphname = uni0306;
lastChange = "2017-12-05 18:39:16 +0000";
layers = (
{
layerId = "1FAED112-D442-4693-91CF-59296FEFF074";
paths = (
{
closed = 1;
nodes = (
"97 758 LINE",
"91 689 OFFCURVE",
"57 667 OFFCURVE",
"-1 667 CURVE SMOOTH",
"-66 667 OFFCURVE",
"-92 686 OFFCURVE",
"-98 758 CURVE",
"-179 758 LINE",
"-172 656 OFFCURVE",
"-129 606 OFFCURVE",
"-2 606 CURVE SMOOTH",
"120 606 OFFCURVE",
"170 658 OFFCURVE",
"179 758 CURVE"
);
}
);
width = 0;
}
);
unicode = 0306;
},
{
glyphname = uni0307;
lastChange = "2017-12-05 18:39:02 +0000";
layers = (
{
layerId = "1FAED112-D442-4693-91CF-59296FEFF074";
paths = (
{
closed = 1;
nodes = (
"-28 740 OFFCURVE",
"-51 723 OFFCURVE",
"-51 684 CURVE SMOOTH",
"-51 646 OFFCURVE",
"-28 628 OFFCURVE",
"0 628 CURVE SMOOTH",
"27 628 OFFCURVE",
"50 646 OFFCURVE",
"50 684 CURVE SMOOTH",
"50 723 OFFCURVE",
"27 740 OFFCURVE",
"0 740 CURVE SMOOTH"
);
}
);
width = 0;
}
);
unicode = 0307;
},
{
glyphname = uni0308;
lastChange = "2017-12-05 18:38:52 +0000";
layers = (
{
layerId = "1FAED112-D442-4693-91CF-59296FEFF074";
paths = (
{
closed = 1;
nodes = (
"-142 649 OFFCURVE",
"-120 631 OFFCURVE",
"-92 631 CURVE SMOOTH",
"-65 631 OFFCURVE",
"-42 649 OFFCURVE",
"-42 686 CURVE SMOOTH",
"-42 725 OFFCURVE",
"-65 740 OFFCURVE",
"-92 740 CURVE SMOOTH",
"-120 740 OFFCURVE",
"-142 725 OFFCURVE",
"-142 686 CURVE SMOOTH"
);
},
{
closed = 1;
nodes = (
"44 649 OFFCURVE",
"67 631 OFFCURVE",
"94 631 CURVE SMOOTH",
"121 631 OFFCURVE",
"144 649 OFFCURVE",
"144 686 CURVE SMOOTH",
"144 725 OFFCURVE",
"121 740 OFFCURVE",
"94 740 CURVE SMOOTH",
"67 740 OFFCURVE",
"44 725 OFFCURVE",
"44 686 CURVE SMOOTH"
);
}
);
width = 0;
}
);
unicode = 0308;
},
{
glyphname = uni0313;
lastChange = "2017-12-05 18:39:22 +0000";
layers = (
{
layerId = "1FAED112-D442-4693-91CF-59296FEFF074";
paths = (
{
closed = 1;
nodes = (
"26 623 OFFCURVE",
"53 673 OFFCURVE",
"53 738 CURVE SMOOTH",
"53 779 OFFCURVE",
"32 805 OFFCURVE",
"0 805 CURVE SMOOTH",
"-31 805 OFFCURVE",
"-52 782 OFFCURVE",
"-52 748 CURVE SMOOTH",
"-52 711 OFFCURVE",
"-29 693 OFFCURVE",
"0 693 CURVE",
"-5 676 OFFCURVE",
"-14 654 OFFCURVE",
"-51 644 CURVE",
"-51 606 LINE"
);
}
);
width = 0;
}
);
unicode = 0313;
},
{
glyphname = uni0483;
lastChange = "2017-12-01 15:43:34 +0000";
layers = (
{
layerId = "1FAED112-D442-4693-91CF-59296FEFF074";
paths = (
{
closed = 1;
nodes = (
"121 654 LINE SMOOTH",
"153 654 OFFCURVE",
"171 673 OFFCURVE",
"171 707 CURVE SMOOTH",
"171 742 OFFCURVE",
"151 761 OFFCURVE",
"126 761 CURVE SMOOTH",
"99 761 OFFCURVE",
"84 745 OFFCURVE",
"81 715 CURVE",
"-124 715 LINE SMOOTH",
"-154 715 OFFCURVE",
"-171 694 OFFCURVE",
"-171 659 CURVE SMOOTH",
"-171 626 OFFCURVE",
"-153 608 OFFCURVE",
"-127 608 CURVE SMOOTH",
"-100 608 OFFCURVE",
"-86 626 OFFCURVE",
"-83 654 CURVE"
);
}
);
width = 0;
}
);
unicode = 0483;
script = cyrillic;
},
{
glyphname = uni20DB;
lastChange = "2017-11-30 22:49:53 +0000";
layers = (
{
layerId = "1FAED112-D442-4693-91CF-59296FEFF074";
paths = (
{
closed = 1;
nodes = (
"-236 649 OFFCURVE",
"-214 631 OFFCURVE",
"-186 631 CURVE SMOOTH",
"-159 631 OFFCURVE",
"-136 649 OFFCURVE",
"-136 686 CURVE SMOOTH",
"-136 725 OFFCURVE",
"-159 740 OFFCURVE",
"-186 740 CURVE SMOOTH",
"-214 740 OFFCURVE",
"-236 725 OFFCURVE",
"-236 686 CURVE SMOOTH"
);
},
{
closed = 1;
nodes = (
"-50 649 OFFCURVE",
"-28 631 OFFCURVE",
"0 631 CURVE SMOOTH",
"27 631 OFFCURVE",
"50 649 OFFCURVE",
"50 686 CURVE SMOOTH",
"50 725 OFFCURVE",
"27 740 OFFCURVE",
"0 740 CURVE SMOOTH",
"-28 740 OFFCURVE",
"-50 725 OFFCURVE",
"-50 686 CURVE SMOOTH"
);
},
{
closed = 1;
nodes = (
"136 649 OFFCURVE",
"159 631 OFFCURVE",
"186 631 CURVE SMOOTH",
"213 631 OFFCURVE",
"236 649 OFFCURVE",
"236 686 CURVE SMOOTH",
"236 725 OFFCURVE",
"213 740 OFFCURVE",
"186 740 CURVE SMOOTH",
"159 740 OFFCURVE",
"136 725 OFFCURVE",
"136 686 CURVE SMOOTH"
);
}
);
width = 0;
}
);
unicode = 20DB;
},
{
glyphname = u10350;
lastChange = "2017-11-30 22:49:53 +0000";
layers = (
{
layerId = "1FAED112-D442-4693-91CF-59296FEFF074";
paths = (
{
closed = 1;
nodes = (
"235 73 OFFCURVE",
"376 138 OFFCURVE",
"527 185 CURVE",
"488 255 LINE",
"374 221 OFFCURVE",
"272 173 OFFCURVE",
"186 111 CURVE",
"502 570 LINE",
"502 638 LINE",
"84 638 LINE",
"84 558 LINE",
"390 558 LINE",
"34 38 LINE",
"108 -14 LINE"
);
},
{
closed = 1;
nodes = (
"115 458 LINE",
"115 638 LINE",
"33 638 LINE",
"33 458 LINE"
);
}
);
width = 539;
}
);
unicode = 10350;
},
{
glyphname = u10351;
lastChange = "2017-11-30 22:49:53 +0000";
layers = (
{
layerId = "1FAED112-D442-4693-91CF-59296FEFF074";
paths = (
{
closed = 1;
nodes = (
"307 -15 OFFCURVE",
"356 27 OFFCURVE",
"384 96 CURVE",
"413 27 OFFCURVE",
"460 -15 OFFCURVE",
"536 -15 CURVE SMOOTH",
"661 -15 OFFCURVE",
"726 57 OFFCURVE",
"726 188 CURVE SMOOTH",
"726 312 OFFCURVE",
"656 419 OFFCURVE",
"483 419 CURVE SMOOTH",
"429 419 LINE",
"429 714 LINE",
"340 714 LINE",
"340 419 LINE",
"286 419 LINE SMOOTH",
"112 419 OFFCURVE",
"42 312 OFFCURVE",
"42 188 CURVE SMOOTH",
"42 56 OFFCURVE",
"107 -15 OFFCURVE",
"228 -15 CURVE SMOOTH"
);
},
{
closed = 1;
nodes = (
"167 62 OFFCURVE",
"134 106 OFFCURVE",
"134 188 CURVE SMOOTH",
"134 283 OFFCURVE",
"186 340 OFFCURVE",
"287 340 CURVE SMOOTH",
"340 340 LINE",
"340 203 LINE SMOOTH",
"340 116 OFFCURVE",
"311 62 OFFCURVE",
"232 62 CURVE SMOOTH"
);
},
{
closed = 1;
nodes = (
"457 62 OFFCURVE",
"429 116 OFFCURVE",
"429 203 CURVE SMOOTH",
"429 340 LINE",
"482 340 LINE SMOOTH",
"583 340 OFFCURVE",
"634 283 OFFCURVE",
"634 188 CURVE SMOOTH",
"634 105 OFFCURVE",
"601 62 OFFCURVE",
"536 62 CURVE SMOOTH"
);
}
);
width = 768;
}
);
unicode = 10351;
},
{
glyphname = u10352;
lastChange = "2017-11-30 22:49:53 +0000";
layers = (
{
layerId = "1FAED112-D442-4693-91CF-59296FEFF074";
paths = (
{
closed = 1;
nodes = (
"327 0 LINE",
"327 559 LINE",
"533 559 LINE",
"533 638 LINE",
"145 638 LINE SMOOTH",
"61 638 OFFCURVE",
"7 588 OFFCURVE",
"7 508 CURVE SMOOTH",
"7 448 OFFCURVE",
"46 404 OFFCURVE",
"102 383 CURVE",
"139 452 LINE",
"108 463 OFFCURVE",
"87 481 OFFCURVE",
"87 510 CURVE SMOOTH",
"87 535 OFFCURVE",
"102 558 OFFCURVE",
"144 558 CURVE SMOOTH",
"238 558 LINE",
"238 0 LINE"
);
},
{
closed = 1;
nodes = (
"533 458 LINE",
"533 638 LINE",
"451 638 LINE",
"451 458 LINE"
);
}
);
width = 564;
}
);
unicode = 10352;
},
{
glyphname = u10353;
lastChange = "2017-11-30 22:49:53 +0000";
layers = (
{
layerId = "1FAED112-D442-4693-91CF-59296FEFF074";
paths = (
{
closed = 1;
nodes = (
"113 0 LINE",
"132 162 OFFCURVE",
"193 323 OFFCURVE",
"274 487 CURVE",
"351 331 OFFCURVE",
"412 168 OFFCURVE",
"434 0 CURVE",
"528 0 LINE",
"500 168 OFFCURVE",
"448 325 OFFCURVE",
"372 477 CURVE SMOOTH",
"335 551 OFFCURVE",
"319 588 OFFCURVE",
"319 628 CURVE SMOOTH",
"319 714 LINE",
"230 714 LINE",
"230 628 LINE SMOOTH",
"230 589 OFFCURVE",
"210 543 OFFCURVE",
"177 476 CURVE SMOOTH",
"99 318 OFFCURVE",
"41 161 OFFCURVE",
"20 0 CURVE"
);
}
);
width = 548;
}
);
unicode = 10353;
},
{
glyphname = u10354;
lastChange = "2017-11-30 22:49:53 +0000";
layers = (
{
layerId = "1FAED112-D442-4693-91CF-59296FEFF074";
paths = (
{
closed = 1;
nodes = (
"180 0 LINE",
"180 217 LINE",
"382 261 OFFCURVE",
"525 489 OFFCURVE",
"541 714 CURVE",
"452 714 LINE",
"435 533 OFFCURVE",
"332 341 OFFCURVE",
"180 296 CURVE",
"180 638 LINE",
"91 638 LINE",
"91 0 LINE"
);
}
);
width = 549;
}
);
leftKerningGroup = u10357;
unicode = 10354;
},
{
glyphname = u10355;
lastChange = "2017-11-30 22:49:53 +0000";
layers = (
{
layerId = "1FAED112-D442-4693-91CF-59296FEFF074";
paths = (
{
closed = 1;
nodes = (
"127 0 LINE",
"211 392 LINE SMOOTH",
"231 487 OFFCURVE",
"255 559 OFFCURVE",
"323 559 CURVE SMOOTH",
"608 559 LINE",
"608 0 LINE",
"697 0 LINE",
"697 638 LINE",
"333 638 LINE SMOOTH",
"190 638 OFFCURVE",
"145 539 OFFCURVE",
"119 409 CURVE SMOOTH",
"38 0 LINE"
);
},
{
closed = 1;
nodes = (
"445 0 LINE",
"445 588 LINE",
"356 588 LINE",
"356 0 LINE"
);
}
);
width = 788;
}
);
leftKerningGroup = u10355;
rightKerningGroup = u10357;
unicode = 10355;
},
{
glyphname = u10356;
lastChange = "2017-11-30 22:49:53 +0000";
layers = (
{
layerId = "1FAED112-D442-4693-91CF-59296FEFF074";
paths = (
{
closed = 1;
nodes = (
"127 0 LINE",
"211 392 LINE SMOOTH",
"231 487 OFFCURVE",
"255 559 OFFCURVE",
"323 559 CURVE SMOOTH",
"608 559 LINE",
"608 0 LINE",
"697 0 LINE",
"697 638 LINE",
"333 638 LINE SMOOTH",
"190 638 OFFCURVE",
"145 539 OFFCURVE",
"119 409 CURVE SMOOTH",
"38 0 LINE"
);
},
{
closed = 1;
nodes = (
"652 0 LINE",
"652 79 LINE",
"104 79 LINE",
"104 0 LINE"
);
},
{
closed = 1;
nodes = (
"445 0 LINE",
"445 588 LINE",
"356 588 LINE",
"356 0 LINE"
);
}
);
width = 788;
}
);
leftKerningGroup = u10355;
rightKerningGroup = u10357;
unicode = 10356;
},
{
glyphname = u10357;
lastChange = "2017-11-30 22:49:53 +0000";
layers = (
{
layerId = "1FAED112-D442-4693-91CF-59296FEFF074";
paths = (
{
closed = 1;
nodes = (
"561 0 LINE",
"561 638 LINE",
"180 638 LINE",
"180 558 LINE",
"472 558 LINE",
"472 0 LINE"
);
},
{
closed = 1;
nodes = (
"472 0 LINE",
"472 80 LINE",
"180 80 LINE",
"180 638 LINE",
"91 638 LINE",
"91 0 LINE"
);
}
);
width = 646;
}
);
leftKerningGroup = u10357;
rightKerningGroup = u10357;
unicode = 10357;
},
{
glyphname = u10358;
lastChange = "2017-11-30 22:49:53 +0000";
layers = (
{
layerId = "1FAED112-D442-4693-91CF-59296FEFF074";
paths = (
{
closed = 1;
nodes = (
"180 0 LINE",
"180 638 LINE",
"91 638 LINE",
"91 0 LINE"
);
}
);
width = 271;
}
);
leftKerningGroup = u10357;
rightKerningGroup = u10357;
unicode = 10358;
},
{
glyphname = u10359;
lastChange = "2017-11-30 22:49:53 +0000";
layers = (
{
layerId = "1FAED112-D442-4693-91CF-59296FEFF074";
paths = (
{
closed = 1;
nodes = (
"422 0 LINE",
"422 638 LINE",
"41 638 LINE",
"41 558 LINE",
"333 558 LINE",
"333 0 LINE"
);
},
{
closed = 1;
nodes = (
"123 458 LINE",
"123 638 LINE",
"41 638 LINE",
"41 458 LINE"
);
}
);
width = 513;
}
);
leftKerningGroup = u10359;
rightKerningGroup = u10357;
unicode = 10359;
},
{
glyphname = u1035A;
lastChange = "2017-11-30 22:49:53 +0000";
layers = (
{
layerId = "1FAED112-D442-4693-91CF-59296FEFF074";
paths = (
{
closed = 1;
nodes = (
"244 37 LINE",
"302 437 LINE SMOOTH",
"313 515 OFFCURVE",
"336 569 OFFCURVE",
"396 569 CURVE SMOOTH",
"442 569 OFFCURVE",
"458 535 OFFCURVE",
"462 479 CURVE",
"546 479 LINE",
"546 565 OFFCURVE",
"498 647 OFFCURVE",
"391 647 CURVE SMOOTH",
"276 647 OFFCURVE",
"231 557 OFFCURVE",
"215 446 CURVE SMOOTH",
"155 37 LINE"
);
},
{
closed = 1;
nodes = (
"101 -108 LINE",
"101 0 LINE",
"520 0 LINE",
"520 -108 LINE",
"605 -108 LINE",
"605 80 LINE",
"16 80 LINE",
"16 -108 LINE"
);
}
);
width = 621;
}
);
unicode = 1035A;
},
{
glyphname = u1035B;
lastChange = "2017-11-30 22:49:53 +0000";
layers = (
{
layerId = "1FAED112-D442-4693-91CF-59296FEFF074";
paths = (
{
closed = 1;
nodes = (
"317 0 LINE",
"370 220 OFFCURVE",
"413 428 OFFCURVE",
"557 448 CURVE",
"557 535 LINE",
"341 521 OFFCURVE",
"294 243 OFFCURVE",
"265 92 CURVE",
"254 143 OFFCURVE",
"241 198 OFFCURVE",
"222 263 CURVE SMOOTH",
"93 714 LINE",
"0 714 LINE",
"215 0 LINE"
);
}
);
width = 581;
}
);
unicode = 1035B;
},
{
glyphname = u1035C;
lastChange = "2017-11-30 22:49:53 +0000";
layers = (
{
layerId = "1FAED112-D442-4693-91CF-59296FEFF074";
paths = (
{
closed = 1;
nodes = (
"296 0 LINE",
"471 559 LINE",
"563 559 LINE",
"563 0 LINE",
"652 0 LINE",
"652 638 LINE",
"404 638 LINE",
"293 258 LINE SMOOTH",
"276 199 OFFCURVE",
"259 147 OFFCURVE",
"251 100 CURVE",
"242 147 OFFCURVE",
"227 197 OFFCURVE",
"209 256 CURVE SMOOTH",
"93 638 LINE",
"0 638 LINE",
"206 0 LINE"
);
}
);
width = 744;
}
);
leftKerningGroup = u1035C;
rightKerningGroup = u10357;
unicode = 1035C;
},
{
glyphname = u1035D;
lastChange = "2017-11-30 22:49:53 +0000";
layers = (
{
layerId = "1FAED112-D442-4693-91CF-59296FEFF074";
paths = (
{
closed = 1;
nodes = (
"479 0 LINE",
"673 638 LINE",
"579 638 LINE",
"475 266 LINE SMOOTH",
"458 206 OFFCURVE",
"442 147 OFFCURVE",
"434 100 CURVE",
"426 147 OFFCURVE",
"414 201 OFFCURVE",
"396 265 CURVE SMOOTH",
"327 513 LINE SMOOTH",
"304 595 OFFCURVE",
"252 648 OFFCURVE",
"164 648 CURVE SMOOTH",
"75 648 OFFCURVE",
"5 579 OFFCURVE",
"5 487 CURVE SMOOTH",
"5 413 OFFCURVE",
"44 361 OFFCURVE",
"108 334 CURVE",
"145 403 LINE",
"110 417 OFFCURVE",
"85 444 OFFCURVE",
"85 487 CURVE SMOOTH",
"85 533 OFFCURVE",
"118 568 OFFCURVE",
"164 568 CURVE SMOOTH",
"203 568 OFFCURVE",
"228 545 OFFCURVE",
"241 500 CURVE SMOOTH",
"389 0 LINE"
);
}
);
width = 673;
}
);
leftKerningGroup = u1035D;
rightKerningGroup = u10375;
unicode = 1035D;
},
{
glyphname = u1035E;
lastChange = "2017-11-30 22:49:53 +0000";
layers = (
{
layerId = "1FAED112-D442-4693-91CF-59296FEFF074";
paths = (
{
closed = 1;
nodes = (
"247 388 OFFCURVE",
"323 456 OFFCURVE",
"386 456 CURVE SMOOTH",
"431 456 OFFCURVE",
"456 421 OFFCURVE",
"456 351 CURVE SMOOTH",
"456 303 LINE",
"545 303 LINE",
"545 364 LINE SMOOTH",
"545 475 OFFCURVE",
"484 535 OFFCURVE",
"397 535 CURVE SMOOTH",
"312 535 OFFCURVE",
"227 467 OFFCURVE",
"156 391 CURVE",
"156 299 LINE"
);
},
{
closed = 1;
nodes = (
"180 0 LINE",
"180 638 LINE",
"91 638 LINE",
"91 0 LINE"
);
}
);
width = 608;
}
);
leftKerningGroup = u10357;
unicode = 1035E;
},
{
glyphname = u1035F;
lastChange = "2017-11-30 22:49:53 +0000";
layers = (
{
layerId = "1FAED112-D442-4693-91CF-59296FEFF074";
paths = (
{
closed = 1;
nodes = (
"240 -187 LINE",
"334 -43 OFFCURVE",
"414 109 OFFCURVE",
"467 228 CURVE SMOOTH",
"484 267 OFFCURVE",
"493 300 OFFCURVE",
"493 334 CURVE SMOOTH",
"493 382 OFFCURVE",
"468 412 OFFCURVE",
"409 412 CURVE SMOOTH",
"381 412 OFFCURVE",
"335 405 OFFCURVE",
"300 398 CURVE SMOOTH",
"180 375 LINE",
"180 714 LINE",
"91 714 LINE",
"91 277 LINE",
"306 319 LINE SMOOTH",
"340 326 OFFCURVE",
"371 332 OFFCURVE",
"388 332 CURVE SMOOTH",
"400 332 OFFCURVE",
"404 326 OFFCURVE",
"404 316 CURVE SMOOTH",
"404 304 OFFCURVE",
"394 279 OFFCURVE",
"385 258 CURVE SMOOTH",
"323 117 OFFCURVE",
"234 -43 OFFCURVE",
"138 -187 CURVE"
);
}
);
width = 551;
}
);
unicode = 1035F;
},
{
glyphname = u10360;
lastChange = "2017-11-30 22:49:53 +0000";
layers = (
{
layerId = "1FAED112-D442-4693-91CF-59296FEFF074";
paths = (
{
closed = 1;
nodes = (
"319 0 LINE",
"515 583 LINE",
"515 638 LINE",
"444 638 LINE",
"316 258 LINE SMOOTH",
"296 198 OFFCURVE",
"282 147 OFFCURVE",
"274 100 CURVE",
"265 147 OFFCURVE",
"252 197 OFFCURVE",
"232 256 CURVE SMOOTH",
"103 638 LINE",
"33 638 LINE",
"33 584 LINE",
"229 0 LINE"
);
},
{
closed = 1;
nodes = (
"480 559 LINE",
"480 638 LINE",
"72 638 LINE",
"72 559 LINE"
);
}
);
width = 548;
}
);
unicode = 10360;
},
{
glyphname = u10361;
lastChange = "2017-11-30 22:49:53 +0000";
layers = (
{
layerId = "1FAED112-D442-4693-91CF-59296FEFF074";
paths = (
{
closed = 1;
nodes = (
"469 -14 OFFCURVE",
"539 91 OFFCURVE",
"539 200 CURVE",
"455 200 LINE",
"447 116 OFFCURVE",
"414 64 OFFCURVE",
"317 64 CURVE SMOOTH",
"220 64 OFFCURVE",
"173 132 OFFCURVE",
"173 251 CURVE SMOOTH",
"173 638 LINE",
"84 638 LINE",
"84 254 LINE SMOOTH",
"84 92 OFFCURVE",
"163 -14 OFFCURVE",
"312 -14 CURVE SMOOTH"
);
},
{
closed = 1;
nodes = (
"266 559 LINE",
"266 638 LINE",
"128 638 LINE",
"128 559 LINE"
);
}
);
width = 579;
}
);
unicode = 10361;
},
{
glyphname = u10362;
lastChange = "2017-11-30 22:49:53 +0000";
layers = (
{
layerId = "1FAED112-D442-4693-91CF-59296FEFF074";
paths = (
{
closed = 1;
nodes = (
"378 22 LINE",
"378 559 LINE",
"554 559 LINE",
"554 638 LINE",
"111 638 LINE",
"111 559 LINE",
"289 559 LINE",
"289 22 LINE"
);
},
{
closed = 1;
nodes = (
"436 -13 OFFCURVE",
"528 8 OFFCURVE",
"598 55 CURVE",
"598 135 LINE",
"521 90 OFFCURVE",
"431 67 OFFCURVE",
"339 67 CURVE SMOOTH",
"243 67 OFFCURVE",
"150 91 OFFCURVE",
"75 136 CURVE",
"75 55 LINE",
"148 8 OFFCURVE",
"241 -13 OFFCURVE",
"339 -13 CURVE SMOOTH"
);
},
{
closed = 1;
nodes = (
"153 458 LINE",
"153 638 LINE",
"71 638 LINE",
"71 458 LINE"
);
},
{
closed = 1;
nodes = (
"594 458 LINE",
"594 638 LINE",
"512 638 LINE",
"512 458 LINE"
);
}
);
width = 669;
}
);
unicode = 10362;
},
{
glyphname = u10363;
lastChange = "2017-11-30 22:49:53 +0000";
layers = (
{
layerId = "1FAED112-D442-4693-91CF-59296FEFF074";
paths = (
{
closed = 1;
nodes = (
"545 281 LINE",
"545 467 LINE SMOOTH",
"545 584 OFFCURVE",
"488 648 OFFCURVE",
"403 648 CURVE SMOOTH",
"301 648 OFFCURVE",
"234 566 OFFCURVE",
"166 473 CURVE",
"166 373 LINE",
"254 488 OFFCURVE",
"333 568 OFFCURVE",
"392 568 CURVE SMOOTH",
"435 568 OFFCURVE",
"456 530 OFFCURVE",
"456 454 CURVE SMOOTH",
"456 281 LINE"
);
},
{
closed = 1;
nodes = (
"180 -187 LINE",
"180 638 LINE",
"91 638 LINE",
"91 -187 LINE"
);
}
);
width = 608;
}
);
leftKerningGroup = u10357;
unicode = 10363;
},
{
glyphname = u10364;
lastChange = "2017-11-30 22:49:53 +0000";
layers = (
{
layerId = "1FAED112-D442-4693-91CF-59296FEFF074";
paths = (
{
closed = 1;
nodes = (
"236 76 OFFCURVE",
"390 359 OFFCURVE",
"507 638 CURVE",
"413 638 LINE",
"286 349 OFFCURVE",
"137 86 OFFCURVE",
"-37 -152 CURVE",
"39 -194 LINE"
);
},
{
closed = 1;
nodes = (
"169 -117 OFFCURVE",
"329 -50 OFFCURVE",
"490 -3 CURVE",
"451 67 LINE",
"326 35 OFFCURVE",
"206 -15 OFFCURVE",
"120 -73 CURVE",
"-37 -152 LINE",
"42 -204 LINE"
);
},
{
closed = 1;
nodes = (
"311 278 LINE",
"105 401 LINE",
"63 331 LINE",
"269 207 LINE"
);
}
);
width = 530;
}
);
unicode = 10364;
},
{
glyphname = u10365;
lastChange = "2017-11-30 22:49:53 +0000";
layers = (
{
layerId = "1FAED112-D442-4693-91CF-59296FEFF074";
paths = (
{
closed = 1;
nodes = (
"94 0 LINE",
"215 376 LINE SMOOTH",
"235 438 OFFCURVE",
"253 494 OFFCURVE",
"265 544 CURVE",
"282 491 OFFCURVE",
"305 433 OFFCURVE",
"332 367 CURVE SMOOTH",
"483 0 LINE",
"580 0 LINE",
"310 638 LINE",
"214 638 LINE",
"0 0 LINE"
);
},
{
closed = 1;
nodes = (
"584 234 OFFCURVE",
"668 309 OFFCURVE",
"668 443 CURVE SMOOTH",
"668 577 OFFCURVE",
"585 648 OFFCURVE",
"473 648 CURVE SMOOTH",
"402 648 OFFCURVE",
"352 620 OFFCURVE",
"315 579 CURVE",
"336 499 LINE",
"368 541 OFFCURVE",
"409 569 OFFCURVE",
"465 569 CURVE SMOOTH",
"525 569 OFFCURVE",
"576 533 OFFCURVE",
"576 442 CURVE SMOOTH",
"576 347 OFFCURVE",
"526 314 OFFCURVE",
"459 314 CURVE SMOOTH",
"436 314 OFFCURVE",
"415 320 OFFCURVE",
"393 333 CURVE",
"401 244 LINE",
"426 237 OFFCURVE",
"438 234 OFFCURVE",
"468 234 CURVE SMOOTH"
);
}
);
width = 719;
}
);
unicode = 10365;
},
{
glyphname = u10366;
lastChange = "2017-11-30 22:49:53 +0000";
layers = (
{
layerId = "1FAED112-D442-4693-91CF-59296FEFF074";
paths = (
{
closed = 1;
nodes = (
"455 0 LINE SMOOTH",
"598 0 OFFCURVE",
"643 99 OFFCURVE",
"669 229 CURVE SMOOTH",
"750 638 LINE",
"661 638 LINE",
"577 246 LINE SMOOTH",
"557 151 OFFCURVE",
"533 79 OFFCURVE",
"465 79 CURVE SMOOTH",
"180 79 LINE",
"180 638 LINE",
"91 638 LINE",
"91 0 LINE"
);
},
{
closed = 1;
nodes = (
"432 50 LINE",
"432 638 LINE",
"343 638 LINE",
"343 50 LINE"
);
}
);
width = 788;
}
);
leftKerningGroup = u10357;
unicode = 10366;
},
{
glyphname = u10367;
lastChange = "2017-11-30 22:49:53 +0000";
layers = (
{
layerId = "1FAED112-D442-4693-91CF-59296FEFF074";
paths = (
{
closed = 1;
nodes = (
"627 0 LINE",
"627 80 LINE",
"345 80 LINE",
"345 638 LINE",
"256 638 LINE",
"256 0 LINE"
);
},
{
closed = 1;
nodes = (
"345 0 LINE",
"345 638 LINE",
"34 638 LINE",
"34 558 LINE",
"256 558 LINE",
"256 0 LINE"
);
},
{
closed = 1;
nodes = (
"116 448 LINE",
"116 638 LINE",
"34 638 LINE",
"34 448 LINE"
);
}
);
width = 651;
}
);
leftKerningGroup = u10359;
unicode = 10367;
},
{
glyphname = u10368;
lastChange = "2017-11-30 22:49:53 +0000";
layers = (
{
layerId = "1FAED112-D442-4693-91CF-59296FEFF074";
paths = (
{
closed = 1;
nodes = (
"750 0 LINE",
"669 409 LINE SMOOTH",
"643 539 OFFCURVE",
"598 638 OFFCURVE",
"455 638 CURVE SMOOTH",
"343 638 LINE",
"343 559 LINE",
"465 559 LINE SMOOTH",
"533 559 OFFCURVE",
"557 487 OFFCURVE",
"577 392 CURVE SMOOTH",
"661 0 LINE"
);
},
{
closed = 1;
nodes = (
"384 0 LINE",
"384 79 LINE",
"136 79 LINE",
"136 0 LINE"
);
},
{
closed = 1;
nodes = (
"180 0 LINE",
"180 638 LINE",
"91 638 LINE",
"91 0 LINE"
);
},
{
closed = 1;
nodes = (
"432 0 LINE",
"432 588 LINE",
"343 588 LINE",
"343 0 LINE"
);
}
);
width = 788;
}
);
leftKerningGroup = u10357;
unicode = 10368;
},
{
glyphname = u10369;
lastChange = "2017-11-30 22:49:53 +0000";
layers = (
{
layerId = "1FAED112-D442-4693-91CF-59296FEFF074";
paths = (
{
closed = 1;
nodes = (
"127 0 LINE",
"211 392 LINE SMOOTH",
"231 487 OFFCURVE",
"255 559 OFFCURVE",
"333 559 CURVE SMOOTH",
"448 559 LINE",
"448 0 LINE",
"537 0 LINE",
"537 638 LINE",
"343 638 LINE SMOOTH",
"190 638 OFFCURVE",
"145 539 OFFCURVE",
"119 409 CURVE SMOOTH",
"38 0 LINE"
);
}
);
width = 628;
}
);
leftKerningGroup = u10355;
rightKerningGroup = u10357;
unicode = 10369;
},
{
glyphname = u1036A;
lastChange = "2017-11-30 22:49:53 +0000";
layers = (
{
layerId = "1FAED112-D442-4693-91CF-59296FEFF074";
paths = (
{
closed = 1;
nodes = (
"336 -14 OFFCURVE",
"383 21 OFFCURVE",
"408 87 CURVE",
"412 87 LINE",
"439 21 OFFCURVE",
"487 -14 OFFCURVE",
"562 -14 CURVE SMOOTH",
"697 -14 OFFCURVE",
"771 97 OFFCURVE",
"771 308 CURVE SMOOTH",
"771 405 OFFCURVE",
"751 512 OFFCURVE",
"706 638 CURVE",
"614 638 LINE",
"660 512 OFFCURVE",
"681 409 OFFCURVE",
"681 310 CURVE SMOOTH",
"681 130 OFFCURVE",
"632 59 OFFCURVE",
"555 59 CURVE SMOOTH",
"488 59 OFFCURVE",
"459 129 OFFCURVE",
"459 246 CURVE SMOOTH",
"459 429 LINE",
"370 429 LINE",
"370 246 LINE SMOOTH",
"370 125 OFFCURVE",
"338 59 OFFCURVE",
"271 59 CURVE SMOOTH",
"193 59 OFFCURVE",
"142 130 OFFCURVE",
"142 311 CURVE SMOOTH",
"142 408 OFFCURVE",
"164 512 OFFCURVE",
"213 638 CURVE",
"121 638 LINE",
"74 512 OFFCURVE",
"53 405 OFFCURVE",
"53 309 CURVE SMOOTH",
"53 98 OFFCURVE",
"128 -14 OFFCURVE",
"265 -14 CURVE SMOOTH"
);
}
);
width = 824;
}
);
unicode = 1036A;
},
{
glyphname = u1036B;
lastChange = "2017-11-30 22:49:53 +0000";
layers = (
{
layerId = "1FAED112-D442-4693-91CF-59296FEFF074";
paths = (
{
closed = 1;
nodes = (
"342 -14 OFFCURVE",
"390 25 OFFCURVE",
"412 95 CURVE",
"414 95 LINE",
"438 25 OFFCURVE",
"485 -14 OFFCURVE",
"562 -14 CURVE SMOOTH",
"697 -14 OFFCURVE",
"771 93 OFFCURVE",
"771 234 CURVE SMOOTH",
"771 466 OFFCURVE",
"590 649 OFFCURVE",
"142 723 CURVE",
"124 656 LINE",
"522 593 OFFCURVE",
"681 443 OFFCURVE",
"681 234 CURVE SMOOTH",
"681 127 OFFCURVE",
"632 59 OFFCURVE",
"555 59 CURVE SMOOTH",
"493 59 OFFCURVE",
"459 94 OFFCURVE",
"459 213 CURVE SMOOTH",
"459 375 LINE",
"370 375 LINE",
"370 213 LINE SMOOTH",
"370 96 OFFCURVE",
"340 59 OFFCURVE",
"271 59 CURVE SMOOTH",
"193 59 OFFCURVE",
"142 127 OFFCURVE",
"142 234 CURVE SMOOTH",
"142 455 OFFCURVE",
"334 606 OFFCURVE",
"700 656 CURVE",
"682 723 LINE",
"280 670 OFFCURVE",
"53 482 OFFCURVE",
"53 234 CURVE SMOOTH",
"53 94 OFFCURVE",
"128 -14 OFFCURVE",
"265 -14 CURVE SMOOTH"
);
}
);
width = 824;
}
);
unicode = 1036B;
},
{
glyphname = u1036C;
lastChange = "2017-11-30 22:49:53 +0000";
layers = (
{
layerId = "1FAED112-D442-4693-91CF-59296FEFF074";
paths = (
{
closed = 1;
nodes = (
"83 -187 LINE",
"591 714 LINE",
"490 714 LINE",
"28 -106 LINE",
"-83 -106 LINE",
"-83 -187 LINE"
);
},
{
closed = 1;
nodes = (
"678 370 LINE",
"678 450 LINE",
"80 450 LINE",
"80 370 LINE"
);
}
);
width = 702;
}
);
unicode = 1036C;
},
{
glyphname = u1036D;
lastChange = "2017-11-30 22:49:53 +0000";
layers = (
{
layerId = "1FAED112-D442-4693-91CF-59296FEFF074";
paths = (
{
closed = 1;
nodes = (
"180 -187 LINE",
"180 638 LINE",
"91 638 LINE",
"91 -187 LINE"
);
}
);
width = 271;
}
);
leftKerningGroup = u10357;
rightKerningGroup = u10357;
unicode = 1036D;
},
{
glyphname = u1036E;
lastChange = "2017-11-30 22:49:53 +0000";
layers = (
{
layerId = "1FAED112-D442-4693-91CF-59296FEFF074";
paths = (
{
closed = 1;
nodes = (
"87 0 LINE",
"269 267 LINE",
"444 0 LINE",
"508 0 LINE",
"508 55 LINE",
"320 327 LINE",
"490 583 LINE",
"490 638 LINE",
"433 638 LINE",
"269 387 LINE",
"106 638 LINE",
"44 638 LINE",
"44 583 LINE",
"216 327 LINE",
"29 55 LINE",
"29 0 LINE"
);
},
{
closed = 1;
nodes = (
"508 0 LINE",
"508 55 LINE",
"468 79 LINE",
"69 79 LINE",
"29 55 LINE",
"29 0 LINE"
);
},
{
closed = 1;
nodes = (
"450 559 LINE",
"490 583 LINE",
"490 638 LINE",
"44 638 LINE",
"44 583 LINE",
"84 559 LINE"
);
}
);
width = 536;
}
);
unicode = 1036E;
},
{
glyphname = u1036F;
lastChange = "2017-11-30 22:49:53 +0000";
layers = (
{
layerId = "1FAED112-D442-4693-91CF-59296FEFF074";
paths = (
{
closed = 1;
nodes = (
"587 0 LINE",
"587 80 LINE",
"345 80 LINE",
"345 638 LINE",
"256 638 LINE",
"256 0 LINE"
);
},
{
closed = 1;
nodes = (
"345 0 LINE",
"345 638 LINE",
"34 638 LINE",
"34 558 LINE",
"256 558 LINE",
"256 0 LINE"
);
},
{
closed = 1;
nodes = (
"116 458 LINE",
"116 638 LINE",
"34 638 LINE",
"34 458 LINE"
);
},
{
closed = 1;
nodes = (
"627 0 LINE",
"627 180 LINE",
"545 180 LINE",
"545 0 LINE"
);
}
);
width = 661;
}
);
leftKerningGroup = u10359;
rightKerningGroup = u1036F;
unicode = 1036F;
},
{
glyphname = u10370;
lastChange = "2017-11-30 22:49:53 +0000";
layers = (
{
layerId = "1FAED112-D442-4693-91CF-59296FEFF074";
paths = (
{
closed = 1;
nodes = (
"512 0 LINE",
"512 80 LINE",
"180 80 LINE",
"180 638 LINE",
"91 638 LINE",
"91 0 LINE"
);
},
{
closed = 1;
nodes = (
"512 0 LINE",
"512 180 LINE",
"430 180 LINE",
"430 0 LINE"
);
}
);
width = 546;
}
);
leftKerningGroup = u10357;
rightKerningGroup = u1036F;
unicode = 10370;
},
{
glyphname = u10371;
lastChange = "2017-11-30 22:49:53 +0000";
layers = (
{
layerId = "1FAED112-D442-4693-91CF-59296FEFF074";
paths = (
{
closed = 1;
nodes = (
"385 0 LINE SMOOTH",
"532 0 OFFCURVE",
"591 84 OFFCURVE",
"591 194 CURVE SMOOTH",
"591 311 OFFCURVE",
"525 376 OFFCURVE",
"385 376 CURVE SMOOTH",
"318 376 LINE",
"318 714 LINE",
"231 714 LINE",
"231 0 LINE"
);
},
{
closed = 1;
nodes = (
"318 302 LINE",
"382 302 LINE SMOOTH",
"464 302 OFFCURVE",
"505 271 OFFCURVE",
"505 189 CURVE SMOOTH",
"505 109 OFFCURVE",
"458 71 OFFCURVE",
"385 71 CURVE SMOOTH",
"318 71 LINE"
);
},
{
closed = 1;
nodes = (
"116 534 LINE",
"116 714 LINE",
"34 714 LINE",
"34 534 LINE"
);
},
{
closed = 1;
nodes = (
"276 634 LINE",
"276 714 LINE",
"34 714 LINE",
"34 634 LINE"
);
},
{
closed = 1;
nodes = (
"526 534 LINE",
"526 714 LINE",
"444 714 LINE",
"444 534 LINE"
);
},
{
closed = 1;
nodes = (
"526 634 LINE",
"526 714 LINE",
"289 714 LINE",
"289 634 LINE"
);
}
);
width = 632;
}
);
unicode = 10371;
},
{
glyphname = u10372;
lastChange = "2017-11-30 22:49:53 +0000";
layers = (
{
layerId = "1FAED112-D442-4693-91CF-59296FEFF074";
paths = (
{
closed = 1;
nodes = (
"535 633 OFFCURVE",
"585 685 OFFCURVE",
"594 785 CURVE",
"512 785 LINE",
"506 716 OFFCURVE",
"472 694 OFFCURVE",
"414 694 CURVE SMOOTH",
"349 694 OFFCURVE",
"323 713 OFFCURVE",
"317 785 CURVE",
"236 785 LINE",
"243 683 OFFCURVE",
"286 633 OFFCURVE",
"413 633 CURVE SMOOTH"
);
},
{
closed = 1;
nodes = (
"479 0 LINE",
"673 638 LINE",
"579 638 LINE",
"475 266 LINE SMOOTH",
"458 206 OFFCURVE",
"442 147 OFFCURVE",
"434 100 CURVE",
"426 147 OFFCURVE",
"414 201 OFFCURVE",
"396 265 CURVE SMOOTH",
"327 513 LINE SMOOTH",
"304 595 OFFCURVE",
"252 648 OFFCURVE",
"164 648 CURVE SMOOTH",
"75 648 OFFCURVE",
"5 579 OFFCURVE",
"5 487 CURVE SMOOTH",
"5 413 OFFCURVE",
"44 361 OFFCURVE",
"108 334 CURVE",
"145 403 LINE",
"110 417 OFFCURVE",
"85 444 OFFCURVE",
"85 487 CURVE SMOOTH",
"85 533 OFFCURVE",
"118 568 OFFCURVE",
"164 568 CURVE SMOOTH",
"203 568 OFFCURVE",
"228 545 OFFCURVE",
"241 500 CURVE SMOOTH",
"389 0 LINE"
);
}
);
width = 674;
}
);
leftKerningGroup = u1035D;
rightKerningGroup = u10375;
unicode = 10372;
},
{
glyphname = u10373;
lastChange = "2017-11-30 22:49:53 +0000";
layers = (
{
layerId = "1FAED112-D442-4693-91CF-59296FEFF074";
paths = (
{
closed = 1;
nodes = (
"547 0 LINE",
"547 447 LINE SMOOTH",
"547 577 OFFCURVE",
"486 648 OFFCURVE",
"391 648 CURVE SMOOTH",
"320 648 OFFCURVE",
"260 604 OFFCURVE",
"218 559 CURVE",
"218 469 LINE",
"278 531 OFFCURVE",
"329 569 OFFCURVE",
"380 569 CURVE SMOOTH",
"431 569 OFFCURVE",
"458 524 OFFCURVE",
"458 434 CURVE SMOOTH",
"458 0 LINE"
);
},
{
closed = 1;
nodes = (
"237 0 LINE",
"237 638 LINE",
"148 638 LINE",
"148 0 LINE"
);
},
{
closed = 1;
nodes = (
"648 0 LINE",
"648 79 LINE",
"490 79 LINE",
"490 0 LINE"
);
},
{
closed = 1;
nodes = (
"192 559 LINE",
"192 638 LINE",
"24 638 LINE",
"24 559 LINE"
);
},
{
closed = 1;
nodes = (
"857 261 LINE",
"857 447 LINE SMOOTH",
"857 577 OFFCURVE",
"796 648 OFFCURVE",
"701 648 CURVE SMOOTH",
"617 648 OFFCURVE",
"561 595 OFFCURVE",
"522 553 CURVE",
"522 463 LINE",
"582 525 OFFCURVE",
"636 569 OFFCURVE",
"690 569 CURVE SMOOTH",
"741 569 OFFCURVE",
"768 524 OFFCURVE",
"768 434 CURVE SMOOTH",
"768 261 LINE"
);
}
);
width = 920;
}
);
unicode = 10373;
},
{
glyphname = u10374;
lastChange = "2017-11-30 22:49:53 +0000";
layers = (
{
layerId = "1FAED112-D442-4693-91CF-59296FEFF074";
paths = (
{
closed = 1;
nodes = (
"670 0 LINE",
"670 427 LINE SMOOTH",
"670 570 OFFCURVE",
"602 648 OFFCURVE",
"487 648 CURVE SMOOTH",
"410 648 OFFCURVE",
"365 612 OFFCURVE",
"311 559 CURVE",
"311 478 LINE",
"365 530 OFFCURVE",
"406 569 OFFCURVE",
"476 569 CURVE SMOOTH",
"548 569 OFFCURVE",
"581 518 OFFCURVE",
"581 414 CURVE SMOOTH",
"581 0 LINE"
);
},
{
closed = 1;
nodes = (
"116 458 LINE",
"116 638 LINE",
"34 638 LINE",
"34 458 LINE"
);
},
{
closed = 1;
nodes = (
"320 0 LINE",
"320 638 LINE",
"231 638 LINE",
"231 0 LINE"
);
},
{
closed = 1;
nodes = (
"761 0 LINE",
"761 79 LINE",
"613 79 LINE",
"613 0 LINE"
);
},
{
closed = 1;
nodes = (
"275 559 LINE",
"275 638 LINE",
"97 638 LINE",
"97 559 LINE"
);
}
);
width = 785;
}
);
leftKerningGroup = u10359;
unicode = 10374;
},
{
glyphname = u10375;
lastChange = "2017-11-30 22:49:53 +0000";
layers = (
{
layerId = "1FAED112-D442-4693-91CF-59296FEFF074";
paths = (
{
closed = 1;
nodes = (
"324 0 LINE",
"558 638 LINE",
"464 638 LINE",
"334 260 LINE SMOOTH",
"314 202 OFFCURVE",
"293 140 OFFCURVE",
"280 94 CURVE",
"278 94 LINE",
"264 140 OFFCURVE",
"244 201 OFFCURVE",
"224 258 CURVE SMOOTH",
"93 638 LINE",
"0 638 LINE",
"234 0 LINE"
);
},
{
closed = 1;
nodes = (
"279 377 LINE",
"351 285 LINE",
"413 323 LINE",
"310 456 LINE",
"248 456 LINE",
"145 323 LINE",
"207 285 LINE"
);
}
);
width = 558;
}
);
leftKerningGroup = u1035C;
rightKerningGroup = u10375;
unicode = 10375;
},
{
glyphname = u10376;
lastChange = "2017-11-30 22:49:53 +0000";
layers = (
{
layerId = "1FAED112-D442-4693-91CF-59296FEFF074";
paths = (
{
closed = 1;
nodes = (
"-21 324 OFFCURVE",
"65 357 OFFCURVE",
"161 383 CURVE",
"131 440 LINE",
"78 426 OFFCURVE",
"20 406 OFFCURVE",
"-24 381 CURVE",
"138 578 LINE",
"138 638 LINE",
"-103 638 LINE",
"-103 577 LINE",
"47 577 LINE",
"-159 324 LINE",
"-102 277 LINE"
);
},
{
closed = 1;
nodes = (
"-73 519 LINE",
"-73 638 LINE",
"-147 638 LINE",
"-147 519 LINE"
);
}
);
width = 0;
}
);
unicode = 10376;
category = Mark;
subCategory = Nonspacing;
},
{
glyphname = u10377;
lastChange = "2017-11-30 22:49:53 +0000";
layers = (
{
layerId = "1FAED112-D442-4693-91CF-59296FEFF074";
paths = (
{
closed = 1;
nodes = (
"-76 287 LINE",
"-67 362 OFFCURVE",
"-43 435 OFFCURVE",
"0 509 CURVE",
"40 438 OFFCURVE",
"64 364 OFFCURVE",
"74 287 CURVE",
"153 287 LINE",
"138 366 OFFCURVE",
"114 442 OFFCURVE",
"73 512 CURVE SMOOTH",
"49 553 OFFCURVE",
"40 571 OFFCURVE",
"40 592 CURVE SMOOTH",
"40 638 LINE",
"-40 638 LINE",
"-40 592 LINE SMOOTH",
"-40 571 OFFCURVE",
"-53 547 OFFCURVE",
"-73 512 CURVE SMOOTH",
"-115 438 OFFCURVE",
"-142 364 OFFCURVE",
"-152 287 CURVE"
);
}
);
width = 0;
}
);
unicode = 10377;
category = Mark;
subCategory = Nonspacing;
},
{
glyphname = u10378;
lastChange = "2017-11-30 22:49:53 +0000";
layers = (
{
layerId = "1FAED112-D442-4693-91CF-59296FEFF074";
paths = (
{
closed = 1;
nodes = (
"140 287 LINE",
"140 638 LINE",
"-62 638 LINE",
"-62 574 LINE",
"62 574 LINE",
"62 287 LINE"
);
},
{
closed = 1;
nodes = (
"62 287 LINE",
"62 351 LINE",
"-62 351 LINE",
"-62 638 LINE",
"-140 638 LINE",
"-140 287 LINE"
);
}
);
width = 0;
}
);
unicode = 10378;
category = Mark;
subCategory = Nonspacing;
},
{
glyphname = u10379;
lastChange = "2017-11-30 22:49:53 +0000";
layers = (
{
layerId = "1FAED112-D442-4693-91CF-59296FEFF074";
paths = (
{
closed = 1;
nodes = (
"91 287 LINE",
"201 632 LINE",
"119 632 LINE",
"71 448 LINE SMOOTH",
"64 422 OFFCURVE",
"59 395 OFFCURVE",
"56 376 CURVE",
"53 395 OFFCURVE",
"48 422 OFFCURVE",
"41 447 CURVE SMOOTH",
"16 543 LINE SMOOTH",
"-1 609 OFFCURVE",
"-37 638 OFFCURVE",
"-99 638 CURVE SMOOTH",
"-155 638 OFFCURVE",
"-202 602 OFFCURVE",
"-202 543 CURVE SMOOTH",
"-202 496 OFFCURVE",
"-171 466 OFFCURVE",
"-127 451 CURVE",
"-91 508 LINE",
"-115 514 OFFCURVE",
"-130 525 OFFCURVE",
"-130 545 CURVE SMOOTH",
"-130 561 OFFCURVE",
"-118 574 OFFCURVE",
"-101 574 CURVE SMOOTH",
"-80 574 OFFCURVE",
"-69 560 OFFCURVE",
"-59 529 CURVE SMOOTH",
"19 287 LINE"
);
}
);
width = 0;
}
);
unicode = 10379;
category = Mark;
subCategory = Nonspacing;
},
{
glyphname = u1037A;
lastChange = "2017-11-30 22:49:53 +0000";
layers = (
{
layerId = "1FAED112-D442-4693-91CF-59296FEFF074";
paths = (
{
closed = 1;
nodes = (
"94 279 OFFCURVE",
"135 343 OFFCURVE",
"135 410 CURVE",
"58 410 LINE",
"54 368 OFFCURVE",
"42 342 OFFCURVE",
"3 342 CURVE SMOOTH",
"-38 342 OFFCURVE",
"-58 373 OFFCURVE",
"-58 427 CURVE SMOOTH",
"-58 638 LINE",
"-136 638 LINE",
"-136 428 LINE SMOOTH",
"-136 338 OFFCURVE",
"-89 279 OFFCURVE",
"0 279 CURVE SMOOTH"
);
},
{
closed = 1;
nodes = (
"-1 577 LINE",
"-1 638 LINE",
"-102 638 LINE",
"-102 577 LINE"
);
}
